<svg width="145" height="32" viewBox="0 0 145 32" fill="none" xmlns="http://www.w3.org/2000/svg">
<path fill-rule="evenodd" clip-rule="evenodd" d="M32 16C32 24.8366 24.8366 32 16 32C7.16344 32 0 24.8366 0 16C0 7.16344 7.16344 0 16 0C24.8366 0 32 7.16344 32 16ZM7.2747 18.3124H11.523C11.6495 18.3124 11.7421 18.4309 11.712 18.5531L9.51654 27.4608C9.4698 27.6503 9.69974 27.783 9.84038 27.6478L24.6427 13.4009C24.7691 13.2795 24.6832 13.0662 24.5079 13.0662H19.3118C19.1503 13.0662 19.0594 12.881 19.1579 12.7528L24.0234 6.44214C24.1223 6.31403 24.0309 6.12874 23.8694 6.12874H13.9109L7.10569 18.0211C7.0314 18.1509 7.1253 18.3124 7.2747 18.3124Z" fill="white"/>
<path d="M44.8139 6.3999V24.5072H41.54V6.3999H44.8139Z" fill="white"/>
<path d="M51.4125 16.5499V24.5072H48.218V10.9267H51.2713V13.2344H51.4301C51.7419 12.474 52.239 11.8698 52.9215 11.4219C53.6098 10.9739 54.4599 10.7499 55.4718 10.7499C56.4072 10.7499 57.222 10.9503 57.9162 11.3511C58.6163 11.7519 59.1575 12.3325 59.5399 13.0929C59.9282 13.8533 60.1194 14.7757 60.1135 15.8603V24.5072H56.919V16.3554C56.919 15.4477 56.6837 14.7374 56.213 14.2246C55.7483 13.7118 55.1041 13.4554 54.2805 13.4554C53.7216 13.4554 53.2245 13.5792 52.7891 13.8267C52.3596 14.0684 52.0214 14.4191 51.7743 14.8789C51.5331 15.3386 51.4125 15.8956 51.4125 16.5499Z" fill="white"/>
<path d="M74.074 14.5164L71.1619 14.8347C71.0795 14.5399 70.9354 14.2629 70.7295 14.0036C70.5295 13.7442 70.2588 13.535 69.9176 13.3758C69.5764 13.2167 69.1587 13.1371 68.6645 13.1371C67.9997 13.1371 67.4408 13.2815 66.9879 13.5703C66.5407 13.8592 66.3201 14.2334 66.326 14.6932C66.3201 15.0881 66.4643 15.4094 66.7584 15.6569C67.0585 15.9045 67.5526 16.1078 68.2409 16.267L70.553 16.7621C71.8355 17.0391 72.7885 17.4783 73.4121 18.0795C74.0416 18.6807 74.3593 19.4676 74.3652 20.4402C74.3593 21.2948 74.1093 22.0493 73.6151 22.7036C73.1268 23.3519 72.4473 23.8589 71.5766 24.2243C70.7059 24.5898 69.7058 24.7725 68.5763 24.7725C66.9173 24.7725 65.5818 24.4247 64.5699 23.7292C63.558 23.0278 62.955 22.0523 62.7609 20.8027L65.876 20.502C66.0171 21.1151 66.3172 21.5778 66.7761 21.8902C67.2349 22.2026 67.8321 22.3588 68.5675 22.3588C69.3264 22.3588 69.9353 22.2026 70.3941 21.8902C70.8589 21.5778 71.0913 21.1917 71.0913 20.7319C71.0913 20.3429 70.9413 20.0217 70.6412 19.7682C70.3471 19.5147 69.8882 19.3202 69.2646 19.1847L66.9526 18.6984C65.6524 18.4272 64.6905 17.9704 64.0669 17.328C63.4433 16.6796 63.1345 15.8603 63.1403 14.87C63.1345 14.033 63.361 13.308 63.8198 12.695C64.2846 12.0761 64.9288 11.5987 65.7524 11.2627C66.5819 10.9208 67.5379 10.7499 68.6204 10.7499C70.2088 10.7499 71.459 11.0888 72.3708 11.7667C73.2886 12.4445 73.8563 13.3611 74.074 14.5164Z" fill="white"/>
<path d="M83.7678 10.9267V13.4023H75.9757V10.9267H83.7678ZM77.8994 7.67307H81.0939V20.4225C81.0939 20.8528 81.1587 21.1828 81.2881 21.4127C81.4234 21.6367 81.5999 21.79 81.8176 21.8725C82.0352 21.955 82.2764 21.9963 82.5412 21.9963C82.7412 21.9963 82.9236 21.9815 83.0883 21.952C83.2589 21.9226 83.3883 21.8961 83.4766 21.8725L84.0149 24.3746C83.8443 24.4336 83.6001 24.4984 83.2824 24.5691C82.9706 24.6399 82.5882 24.6811 82.1352 24.6929C81.3351 24.7165 80.6145 24.5956 79.9732 24.3304C79.332 24.0593 78.8231 23.6408 78.4466 23.0749C78.0759 22.5091 77.8936 21.8017 77.8994 20.953V7.67307Z" fill="white"/>
<path d="M90.3399 24.7813C89.481 24.7813 88.7073 24.6281 88.019 24.3216C87.3366 24.0092 86.7954 23.5494 86.3953 22.9423C86.0011 22.3352 85.8041 21.5866 85.8041 20.6966C85.8041 19.9303 85.9453 19.2967 86.2276 18.7956C86.51 18.2946 86.8954 17.8938 87.3837 17.5932C87.872 17.2926 88.422 17.0657 89.0339 16.9124C89.6516 16.7533 90.2899 16.6383 90.9488 16.5676C91.743 16.4851 92.3872 16.4114 92.8814 16.3466C93.3755 16.2758 93.7344 16.1697 93.958 16.0283C94.1874 15.8809 94.3021 15.654 94.3021 15.3475V15.2944C94.3021 14.6284 94.105 14.1126 93.7109 13.7472C93.3167 13.3817 92.749 13.199 92.0077 13.199C91.2253 13.199 90.6046 13.3699 90.1458 13.7118C89.6928 14.0537 89.3868 14.4574 89.228 14.9231L86.2453 14.4987C86.4806 13.6735 86.8689 12.9838 87.4101 12.4298C87.9514 11.8698 88.6132 11.4513 89.3957 11.1743C90.1781 10.8914 91.0429 10.7499 91.9901 10.7499C92.6431 10.7499 93.2932 10.8265 93.9403 10.9798C94.5875 11.133 95.1787 11.3865 95.7141 11.7402C96.2494 12.0879 96.6789 12.5624 97.0025 13.1636C97.3319 13.7648 97.4966 14.5164 97.4966 15.4182V24.5072H94.4257V22.6417H94.3198C94.1256 23.0189 93.8521 23.3726 93.4991 23.7027C93.152 24.0268 92.7137 24.2891 92.1842 24.4895C91.6606 24.6841 91.0459 24.7813 90.3399 24.7813ZM91.1694 22.4295C91.8107 22.4295 92.3666 22.3028 92.8372 22.0493C93.3079 21.79 93.6697 21.4481 93.9227 21.0237C94.1815 20.5993 94.311 20.1366 94.311 19.6356V18.0353C94.2109 18.1178 94.0403 18.1944 93.7991 18.2652C93.5638 18.3359 93.2991 18.3978 93.0049 18.4508C92.7108 18.5039 92.4196 18.551 92.1313 18.5923C91.843 18.6335 91.593 18.6689 91.3812 18.6984C90.9047 18.7632 90.4781 18.8693 90.1016 19.0167C89.7251 19.164 89.428 19.3703 89.2103 19.6356C88.9927 19.8949 88.8838 20.2309 88.8838 20.6435C88.8838 21.2329 89.0986 21.678 89.528 21.9786C89.9575 22.2792 90.5046 22.4295 91.1694 22.4295Z" fill="white"/>
<path d="M103.903 16.5499V24.5072H100.709V10.9267H103.762V13.2344H103.921C104.233 12.474 104.73 11.8698 105.412 11.4219C106.101 10.9739 106.951 10.7499 107.963 10.7499C108.898 10.7499 109.713 10.9503 110.407 11.3511C111.107 11.7519 111.648 12.3325 112.031 13.0929C112.419 13.8533 112.61 14.7757 112.604 15.8603V24.5072H109.41V16.3554C109.41 15.4477 109.174 14.7374 108.704 14.2246C108.239 13.7118 107.595 13.4554 106.771 13.4554C106.212 13.4554 105.715 13.5792 105.28 13.8267C104.85 14.0684 104.512 14.4191 104.265 14.8789C104.024 15.3386 103.903 15.8956 103.903 16.5499Z" fill="white"/>
<path d="M122.62 10.9267V13.4023H114.828V10.9267H122.62ZM116.752 7.67307H119.946V20.4225C119.946 20.8528 120.011 21.1828 120.14 21.4127C120.276 21.6367 120.452 21.79 120.67 21.8725C120.888 21.955 121.129 21.9963 121.394 21.9963C121.594 21.9963 121.776 21.9815 121.941 21.952C122.111 21.9226 122.241 21.8961 122.329 21.8725L122.867 24.3746C122.697 24.4336 122.453 24.4984 122.135 24.5691C121.823 24.6399 121.441 24.6811 120.988 24.6929C120.188 24.7165 119.467 24.5956 118.826 24.3304C118.184 24.0593 117.675 23.6408 117.299 23.0749C116.928 22.5091 116.746 21.8017 116.752 20.953V7.67307Z" fill="white"/>
<path d="M128.778 6.3999V24.5072H125.583V6.3999H128.778Z" fill="white"/>
<path d="M134.048 29.5999C133.613 29.5999 133.21 29.5646 132.839 29.4938C132.474 29.429 132.183 29.3524 131.965 29.2639L132.707 26.7706C133.171 26.9062 133.586 26.9711 133.951 26.9652C134.316 26.9593 134.636 26.8443 134.913 26.6203C135.195 26.4023 135.433 26.0368 135.628 25.524L135.901 24.7902L130.986 10.9267H134.375L137.498 21.1828H137.64L140.772 10.9267H144.17L138.743 26.1517C138.49 26.8709 138.154 27.4868 137.737 27.9996C137.319 28.5183 136.807 28.9132 136.201 29.1844C135.601 29.4614 134.883 29.5999 134.048 29.5999Z" fill="white"/>
</svg>
